<svg xmlns="http://www.w3.org/2000/svg" viewBox="0 0 120.71 116.17"><defs><style>.cls-1{fill:#fff;}</style></defs><g id="레이어_2" data-name="레이어 2"><g id="레이어_1-2" data-name="레이어 1"><polygon class="cls-1" points="49.15 0 8.24 0 6.13 11.94 47.05 11.94 49.15 0"/><polygon class="cls-1" points="33.01 17.87 5.12 17.87 3.01 29.81 30.91 29.81 33.01 17.87"/><polygon class="cls-1" points="43.21 35.74 2.1 35.74 0 47.68 41.11 47.68 43.21 35.74"/><polygon class="cls-1" points="73.41 0 61.47 0 53.06 47.68 65 47.68 73.41 0"/><polygon class="cls-1" points="105.22 19.28 93.28 19.28 84.88 66.96 96.81 66.96 105.22 19.28"/><polygon class="cls-1" points="120.71 66.96 108.77 66.96 100.37 116.17 112.3 116.17 120.71 66.96"/><polygon class="cls-1" points="93.33 19.28 81.39 19.28 65 47.68 76.93 47.68 93.33 19.28"/><polygon class="cls-1" points="108.79 66.96 96.86 66.96 80.46 95.36 92.39 95.36 108.79 66.96"/><polygon class="cls-1" points="82.48 83.43 46.83 83.43 44.73 95.36 80.37 95.36 82.48 83.43"/><polygon class="cls-1" points="115.08 99.21 79.85 99.21 77.77 111.15 113 111.15 115.08 99.21"/><polygon class="cls-1" points="46.84 83.43 34.88 83.43 41.11 47.68 53.06 47.68 46.84 83.43"/></g></g></svg>